# xmcd
#
# Track frame offsets:
#	150
#	16356
#	32233
#	45688
#	61566
#	73550
#	91198
#	107042
#	126861
#	139271
#	151797
#	166271
#	180353
#	191204
#	205664
#	215566
#	229762
#
# Disc length: 3195 seconds
#
# Revision: 0
# Processed by: cddbd v1.5.2PL0 Copyright (c) Steve Scherf et al.
# Submitted via: EZCDAudioConverter 2.1.7.1
#
DISCID=e20c7911
DTITLE=Bob Marley - Best Of The Early Singles 1/2
DYEAR=1900
DGENRE=
TTITLE0=My Cup
TTITLE1=Man To Man
TTITLE2=Duppy Conqueror
TTITLE3=Mr. Brown
TTITLE4=Kaya
TTITLE5=Small Axe
TTITLE6=More Axe
TTITLE7=All In One (Part 1 and 2)
TTITLE8=Dreamland
TTITLE9=Lovelight
TTITLE10=Downpressor
TTITLE11=Keep On Moving
TTITLE12=African Herbsman
TTITLE13=Run For Cover
TTITLE14=Sun Is Shining
TTITLE15=Secondhand (Justice League)
TTITLE16=Stand Alone (Blackheart 7)
EXTD=
EXTT0=
EXTT1=
EXTT2=
EXTT3=
EXTT4=
EXTT5=
EXTT6=
EXTT7=
EXTT8=
EXTT9=
EXTT10=
EXTT11=
EXTT12=
EXTT13=
EXTT14=
EXTT15=
EXTT16=
PLAYORDER=
